# Blender 3.6.1
# www.blender.org
mtllib BrickWall.mtl
g BrickWall_Mesh
v 3.000000 2.000000 -0.500000
v 3.000000 0.000000 -0.500000
v 3.000000 2.000000 0.500000
v 3.000000 0.000000 0.500000
v -3.000000 2.000000 -0.500000
v -3.000000 0.000000 -0.500000
v -3.000000 2.000000 0.500000
v -3.000000 0.000000 0.500000
v 2.142857 0.000000 -0.500000
v 1.285714 0.000000 -0.500000
v 0.428571 0.000000 -0.500000
v -0.428572 0.000000 -0.500000
v -1.285714 0.000000 -0.500000
v -2.142857 0.000000 -0.500000
v 2.142857 2.000000 0.500000
v 1.285714 2.000000 0.500000
v 0.428571 2.000000 0.500000
v -0.428572 2.000000 0.500000
v -1.285714 2.000000 0.500000
v -2.142857 2.000000 0.500000
v -2.142857 0.000000 0.500000
v -1.285714 0.000000 0.500000
v -0.428571 0.000000 0.500000
v 0.428572 0.000000 0.500000
v 1.285714 0.000000 0.500000
v 2.142857 0.000000 0.500000
v -2.142857 2.000000 -0.500000
v -1.285714 2.000000 -0.500000
v -0.428571 2.000000 -0.500000
v 0.428572 2.000000 -0.500000
v 1.285714 2.000000 -0.500000
v 2.142857 2.000000 -0.500000
v 3.000000 1.333333 -0.500000
v 3.000000 0.666667 -0.500000
v -3.000000 0.666667 0.500000
v -3.000000 1.333333 0.500000
v 3.000000 1.333333 0.500000
v 3.000000 0.666667 0.500000
v -3.000000 1.333333 -0.500000
v -3.000000 0.666667 -0.500000
v -2.142857 1.333333 -0.500000
v -2.142857 0.666667 -0.500000
v -1.285714 1.333333 -0.500000
v -1.285714 0.666667 -0.500000
v -0.428571 1.333333 -0.500000
v -0.428571 0.666667 -0.500000
v 0.428571 1.333333 -0.500000
v 0.428571 0.666667 -0.500000
v 1.285714 1.333333 -0.500000
v 1.285714 0.666667 -0.500000
v 2.142857 1.333333 -0.500000
v 2.142857 0.666667 -0.500000
v 2.142857 1.333333 0.500000
v 2.142857 0.666667 0.500000
v 1.285714 1.333333 0.500000
v 1.285714 0.666667 0.500000
v 0.428571 1.333333 0.500000
v 0.428571 0.666667 0.500000
v -0.428571 1.333333 0.500000
v -0.428571 0.666667 0.500000
v -1.285714 1.333333 0.500000
v -1.285714 0.666667 0.500000
v -2.142857 1.333333 0.500000
v -2.142857 0.666667 0.500000
vn -0.0000 1.0000 -0.0000
vn -0.0000 -0.0000 1.0000
vn -1.0000 -0.0000 -0.0000
vn -0.0000 -1.0000 -0.0000
vn 1.0000 -0.0000 -0.0000
vn -0.0000 -0.0000 -1.0000
vt 0.624978 0.125065
vt 0.749957 0.232189
vt 0.624978 0.232189
vt 0.000087 0.232189
vt 0.083406 0.125065
vt 0.083406 0.232189
vt 0.624978 0.000087
vt 0.541660 0.125065
vt 0.541660 0.000087
vt 0.375022 0.874935
vt 0.250043 0.767811
vt 0.375022 0.767811
vt 0.624979 0.874935
vt 0.541660 0.999913
vt 0.541660 0.874935
vt 0.624978 0.767811
vt 0.541660 0.767811
vt 0.541660 0.232189
vt 0.541660 0.339314
vt 0.624978 0.339314
vt 0.541660 0.446438
vt 0.624979 0.446438
vt 0.541660 0.553562
vt 0.624979 0.553562
vt 0.541660 0.660686
vt 0.624979 0.660686
vt 0.375022 0.232189
vt 0.250044 0.125065
vt 0.375022 0.125065
vt 0.375022 0.339314
vt 0.250043 0.232189
vt 0.375022 0.446438
vt 0.250043 0.339314
vt 0.375022 0.553562
vt 0.250043 0.446438
vt 0.375022 0.660686
vt 0.250043 0.553562
vt 0.250043 0.660686
vt 0.000087 0.874935
vt 0.083406 0.767811
vt 0.083406 0.874935
vt 0.000087 0.767811
vt 0.083406 0.660686
vt 0.000087 0.660686
vt 0.083406 0.553562
vt 0.000087 0.553562
vt 0.083406 0.446438
vt 0.000087 0.446438
vt 0.083406 0.339314
vt 0.000087 0.339314
vt 0.749957 0.874935
vt 0.749957 0.767811
vt 0.749957 0.660686
vt 0.749957 0.553562
vt 0.749957 0.446438
vt 0.749957 0.339314
vt 0.166725 0.339314
vt 0.166725 0.232189
vt 0.166725 0.446438
vt 0.166725 0.553562
vt 0.166725 0.660686
vt 0.166725 0.767811
vt 0.166724 0.874935
vt 0.250043 0.874935
vt 0.458341 0.660686
vt 0.458341 0.767811
vt 0.458341 0.553562
vt 0.458341 0.446438
vt 0.458341 0.339314
vt 0.458341 0.232189
vt 0.458341 0.125065
vt 0.458341 0.874935
vt 0.375022 0.999913
vt 0.458341 0.999913
vt 0.458341 0.000087
vt 0.375022 0.000087
vt 0.166725 0.125065
vt 0.749957 0.125065
vt 0.000087 0.125065
vt 0.624978 0.999913
s 0
g BrickWall_BrickMat
usemtl BrickMat
f 5/1/1 20/2/1 27/3/1
f 20/4/2 36/5/2 63/6/2
f 7/7/3 39/8/3 36/9/3
f 2/10/4 26/11/4 9/12/4
f 1/13/5 37/14/5 33/15/5
f 32/16/6 33/15/6 51/17/6
f 5/1/6 41/18/6 39/8/6
f 27/3/6 43/19/6 41/18/6
f 28/20/6 45/21/6 43/19/6
f 29/22/6 47/23/6 45/21/6
f 30/24/6 49/25/6 47/23/6
f 31/26/6 51/17/6 49/25/6
f 14/27/4 8/28/4 6/29/4
f 13/30/4 21/31/4 14/27/4
f 12/32/4 22/33/4 13/30/4
f 11/34/4 23/35/4 12/32/4
f 10/36/4 24/37/4 11/34/4
f 9/12/4 25/38/4 10/36/4
f 3/39/2 53/40/2 37/41/2
f 15/42/2 55/43/2 53/40/2
f 16/44/2 57/45/2 55/43/2
f 17/46/2 59/47/2 57/45/2
f 18/48/2 61/49/2 59/47/2
f 19/50/2 63/6/2 61/49/2
f 32/16/1 3/51/1 1/13/1
f 31/26/1 15/52/1 32/16/1
f 30/24/1 16/53/1 31/26/1
f 29/22/1 17/54/1 30/24/1
f 28/20/1 18/55/1 29/22/1
f 27/3/1 19/56/1 28/20/1
f 62/57/2 21/31/2 22/33/2
f 62/57/2 63/6/2 64/58/2
f 60/59/2 22/33/2 23/35/2
f 59/47/2 62/57/2 60/59/2
f 58/60/2 23/35/2 24/37/2
f 57/45/2 60/59/2 58/60/2
f 56/61/2 24/37/2 25/38/2
f 55/43/2 58/60/2 56/61/2
f 54/62/2 25/38/2 26/11/2
f 53/40/2 56/61/2 54/62/2
f 38/63/2 26/11/2 4/64/2
f 37/41/2 54/62/2 38/63/2
f 50/65/6 9/12/6 10/36/6
f 50/65/6 51/17/6 52/66/6
f 48/67/6 10/36/6 11/34/6
f 47/23/6 50/65/6 48/67/6
f 46/68/6 11/34/6 12/32/6
f 45/21/6 48/67/6 46/68/6
f 44/69/6 12/32/6 13/30/6
f 43/19/6 46/68/6 44/69/6
f 42/70/6 13/30/6 14/27/6
f 41/18/6 44/69/6 42/70/6
f 40/71/6 14/27/6 6/29/6
f 39/8/6 42/70/6 40/71/6
f 52/66/6 2/10/6 9/12/6
f 51/17/6 34/72/6 52/66/6
f 34/72/5 4/73/5 2/10/5
f 33/15/5 38/74/5 34/72/5
f 35/75/3 6/29/3 8/76/3
f 36/9/3 40/71/3 35/75/3
f 64/58/2 8/28/2 21/31/2
f 63/6/2 35/77/2 64/58/2
f 5/1/1 7/78/1 20/2/1
f 20/4/2 7/79/2 36/5/2
f 7/7/3 5/1/3 39/8/3
f 2/10/4 4/64/4 26/11/4
f 1/13/5 3/80/5 37/14/5
f 32/16/6 1/13/6 33/15/6
f 5/1/6 27/3/6 41/18/6
f 27/3/6 28/20/6 43/19/6
f 28/20/6 29/22/6 45/21/6
f 29/22/6 30/24/6 47/23/6
f 30/24/6 31/26/6 49/25/6
f 31/26/6 32/16/6 51/17/6
f 14/27/4 21/31/4 8/28/4
f 13/30/4 22/33/4 21/31/4
f 12/32/4 23/35/4 22/33/4
f 11/34/4 24/37/4 23/35/4
f 10/36/4 25/38/4 24/37/4
f 9/12/4 26/11/4 25/38/4
f 3/39/2 15/42/2 53/40/2
f 15/42/2 16/44/2 55/43/2
f 16/44/2 17/46/2 57/45/2
f 17/46/2 18/48/2 59/47/2
f 18/48/2 19/50/2 61/49/2
f 19/50/2 20/4/2 63/6/2
f 32/16/1 15/52/1 3/51/1
f 31/26/1 16/53/1 15/52/1
f 30/24/1 17/54/1 16/53/1
f 29/22/1 18/55/1 17/54/1
f 28/20/1 19/56/1 18/55/1
f 27/3/1 20/2/1 19/56/1
f 62/57/2 64/58/2 21/31/2
f 62/57/2 61/49/2 63/6/2
f 60/59/2 62/57/2 22/33/2
f 59/47/2 61/49/2 62/57/2
f 58/60/2 60/59/2 23/35/2
f 57/45/2 59/47/2 60/59/2
f 56/61/2 58/60/2 24/37/2
f 55/43/2 57/45/2 58/60/2
f 54/62/2 56/61/2 25/38/2
f 53/40/2 55/43/2 56/61/2
f 38/63/2 54/62/2 26/11/2
f 37/41/2 53/40/2 54/62/2
f 50/65/6 52/66/6 9/12/6
f 50/65/6 49/25/6 51/17/6
f 48/67/6 50/65/6 10/36/6
f 47/23/6 49/25/6 50/65/6
f 46/68/6 48/67/6 11/34/6
f 45/21/6 47/23/6 48/67/6
f 44/69/6 46/68/6 12/32/6
f 43/19/6 45/21/6 46/68/6
f 42/70/6 44/69/6 13/30/6
f 41/18/6 43/19/6 44/69/6
f 40/71/6 42/70/6 14/27/6
f 39/8/6 41/18/6 42/70/6
f 52/66/6 34/72/6 2/10/6
f 51/17/6 33/15/6 34/72/6
f 34/72/5 38/74/5 4/73/5
f 33/15/5 37/14/5 38/74/5
f 35/75/3 40/71/3 6/29/3
f 36/9/3 39/8/3 40/71/3
f 64/58/2 35/77/2 8/28/2
f 63/6/2 36/5/2 35/77/2
