# Blender 3.6.1
# www.blender.org
mtllib TwoMats.mtl
g main_Mesh
v 1.000000 1.000000 -1.000000
v 1.000000 -1.000000 -1.000000
v 1.000000 1.000000 1.000000
v 1.000000 -1.000000 1.000000
v -1.000000 1.000000 -1.000000
v -1.000000 -1.000000 -1.000000
v -1.000000 1.000000 1.000000
v -1.000000 -1.000000 1.000000
vn -0.0000 1.0000 -0.0000
vn -0.0000 -0.0000 1.0000
vn -1.0000 -0.0000 -0.0000
vn -0.0000 -1.0000 -0.0000
vn 1.0000 -0.0000 -0.0000
vn -0.0000 -0.0000 -1.0000
vt 0.000000 1.000000
vt 1.000000 0.000000
vt 1.000000 1.000000
vt 0.000000 0.000000
s 0
g main_Material1
usemtl Material1
f 5/1/1 3/2/1 1/3/1
f 3/3/2 8/4/2 4/2/2
f 7/1/3 6/2/3 8/4/3
f 2/3/4 8/4/4 6/1/4
f 1/3/5 4/4/5 2/2/5
f 5/1/6 2/2/6 6/4/6
f 5/1/1 7/4/1 3/2/1
f 3/3/2 7/1/2 8/4/2
f 7/1/3 5/3/3 6/2/3
f 2/3/4 4/2/4 8/4/4
f 1/3/5 3/1/5 4/4/5
f 5/1/6 1/3/6 2/2/6
g two_Mesh
v 3.053823 1.215739 -0.319512
v 3.053823 0.576715 -0.319512
v 3.053823 1.215739 0.319512
v 3.053823 0.576715 0.319512
v 0.119116 1.215739 -0.319512
v 0.119116 0.576715 -0.319512
v 0.119116 1.215739 0.319512
v 0.119116 0.576715 0.319512
vn -0.0000 1.0000 -0.0000
vn -0.0000 -0.0000 1.0000
vn -1.0000 -0.0000 -0.0000
vn -0.0000 -1.0000 -0.0000
vn 1.0000 -0.0000 -0.0000
vn -0.0000 -0.0000 -1.0000
vt 0.000000 0.608874
vt 1.000000 0.391126
vt 1.000000 0.608874
vt 0.000000 0.391126
vt 0.391126 0.608874
vt 0.608874 0.391126
vt 0.391126 0.391126
vt 0.608874 0.608874
s 0
g two_Mateiral2
usemtl Mateiral2
f 13/5/7 11/6/7 9/7/7
f 11/7/8 16/8/8 12/6/8
f 15/9/9 14/10/9 16/11/9
f 10/7/10 16/8/10 14/5/10
f 9/12/11 12/11/11 10/10/11
f 13/5/12 10/6/12 14/8/12
f 13/5/7 15/8/7 11/6/7
f 11/7/8 15/5/8 16/8/8
f 15/9/9 13/12/9 14/10/9
f 10/7/10 12/6/10 16/8/10
f 9/12/11 11/9/11 12/11/11
f 13/5/12 9/7/12 10/6/12
